<svg xmlns="http://www.w3.org/2000/svg" width="88" height="88" fill="none" viewBox="0 0 88 88">
  <path fill="#fff" d="M85.797 2.203A6.25 6.25 0 0 0 79.68.61h-.059L4.645 23.36a6.25 6.25 0 0 0-.946 11.657l33.446 15.84L52.984 84.3a6.196 6.196 0 0 0 6.171 3.55 6.203 6.203 0 0 0 5.469-4.495L87.359 8.379V8.32a6.25 6.25 0 0 0-1.562-6.117ZM58.652 81.567l-.02.054-15.374-32.457L61.71 30.707a3.125 3.125 0 0 0-4.418-4.418L38.836 44.742 6.375 29.367h.055L81.375 6.625 58.652 81.567Z"/>
  <path fill="#16826B" d="m84.379 7.477-22.742 75a3.125 3.125 0 0 1-5.828.488l-15.84-33.446a3.125 3.125 0 0 0-1.485-1.484L5.04 32.191a3.125 3.125 0 0 1 .488-5.828l75-22.742a3.125 3.125 0 0 1 3.852 3.856Z"/>
</svg>
