<svg width="28" height="29" viewBox="0 0 28 29" fill="none" xmlns="http://www.w3.org/2000/svg">
<path fill-rule="evenodd" clip-rule="evenodd" d="M23.9197 4.24867C21.2878 1.54154 17.7876 0.0499225 14.0584 0.0484009C6.37465 0.0484009 0.121 6.47292 0.117925 14.3697C0.1169 16.8939 0.758851 19.358 1.97871 21.5298L0.0010376 28.9516L7.3911 26.96C9.4272 28.101 11.7197 28.7023 14.0529 28.7033H14.0586C21.7416 28.7033 27.9958 22.278 27.9989 14.3811C28.0004 10.5542 26.5517 6.95581 23.9197 4.24867ZM14.0586 26.2843H14.0538C11.9748 26.2835 9.93552 25.7097 8.15658 24.6251L7.73345 24.3671L3.34814 25.5489L4.51869 21.1562L4.24315 20.7058C3.08331 18.8105 2.47071 16.6198 2.47162 14.3706C2.47416 7.80711 7.67199 2.46733 14.0632 2.46733C17.1579 2.46854 20.0671 3.70839 22.2547 5.95847C24.4424 8.20854 25.6464 11.1994 25.6452 14.3802C25.6426 20.9442 20.4448 26.2843 14.0586 26.2843ZM20.4141 17.3689C20.0658 17.1897 18.3533 16.324 18.034 16.2045C17.7147 16.0851 17.4825 16.0254 17.2503 16.3837C17.0181 16.7419 16.3505 17.548 16.1473 17.7868C15.9442 18.0257 15.741 18.0556 15.3926 17.8764C15.0443 17.6973 13.922 17.3194 12.5915 16.1002C11.5561 15.1514 10.857 13.9794 10.6538 13.6211C10.4506 13.2628 10.6322 13.0691 10.8065 12.8908C10.9632 12.7304 11.1548 12.4728 11.329 12.2638C11.5032 12.0548 11.5612 11.9056 11.6773 11.6667C11.7934 11.4279 11.7354 11.2189 11.6483 11.0398C11.5612 10.8607 10.8646 9.09921 10.5743 8.3827C10.2916 7.68488 10.0044 7.77929 9.79062 7.76837C9.58767 7.75799 9.35522 7.75577 9.12304 7.75577C8.89082 7.75577 8.51347 7.84535 8.19417 8.20358C7.8749 8.56186 6.97511 9.42764 6.97511 11.189C6.97511 12.9505 8.22321 14.6521 8.39738 14.891C8.57152 15.1298 10.8535 18.7445 14.3477 20.2946C15.1788 20.6633 15.8276 20.8835 16.3334 21.0485C17.1679 21.3208 17.9272 21.2824 18.5274 21.1903C19.1966 21.0875 20.5882 20.3245 20.8785 19.4886C21.1688 18.6526 21.1688 17.9361 21.0817 17.7869C20.9946 17.6376 20.7624 17.548 20.4141 17.3689Z" fill="#B7B7B7"/>
</svg>
